<?xml version="1.0" encoding="utf-8"?>
<!-- Cat icon by Arthur Shlain from Usefulicons.com -->
<svg xmlns="http://www.w3.org/2000/svg" xmlns:xlink="http://www.w3.org/1999/xlink" xml:space="preserve" version="1.1" x="0px" y="0px" viewBox="0 0 100 100" width="400px" height="400px"><path d="M45,85L50,85C52.761,85,55,87.239,55,90L20,90C14.477,90,10,85.523,10,80L10,50C12.761,50,15,52.239,15,55L15,80C15,82.761,17.239,85,20,85L20.25,85C22.054,66.832,33.588,51.537,49.562,44.37C54.091,50.793,61.561,55,70,55C73.555,55,76.935,54.249,80,52.906L80,85C82.761,85,85,87.239,85,90L80,90C77.239,90,75,87.761,75,85L75,70C75,67.239,72.761,65,70,65L70,65C67.239,65,65,67.239,65,70L65,85C67.761,85,70,87.239,70,90L65,90C62.239,90,60,87.761,60,85L60,80C60,77.239,57.761,75,55,75L55,75C49.477,75,45,79.477,45,85L45,85Z" stroke="none"></path><path d="M70,50C81.046,50,90,41.046,90,30L90,20L90,12.5C90,11.119,88.881,10,87.5,10C86.757,10,86.097,10.33,85.639,10.845L85.629,10.841L77.5,20L62.5,20L54.37,10.841L54.36,10.845C53.903,10.33,53.243,10,52.5,10C51.119,10,50,11.119,50,12.5L50,20L50,30C50,41.046,58.954,50,70,50ZM77.5,30C78.881,30,80,31.119,80,32.5C80,33.881,78.881,35,77.5,35S75,33.881,75,32.5C75,31.119,76.119,30,77.5,30ZM62.5,30C63.881,30,65,31.119,65,32.5C65,33.881,63.881,35,62.5,35S60,33.881,60,32.5C60,31.119,61.119,30,62.5,30Z" stroke="none"></path></svg>